<?xml version="1.0" encoding="UTF-8"?>
<svg width="19px" height="44px" viewBox="0 0 19 44" version="1.1" xmlns="http://www.w3.org/2000/svg" xmlns:xlink="http://www.w3.org/1999/xlink">
    <!-- Generator: Sketch 39.1 (31720) - http://www.bohemiancoding.com/sketch -->
    <title>Combined Shape</title>
    <desc>Created with Sketch.</desc>
    <defs></defs>
    <g id="Flow" stroke="none" stroke-width="1" fill="none" fill-rule="evenodd">
        <g id="Yes---Family" transform="translate(-91.000000, -454.000000)" fill="#8A8A8A">
            <path d="M101.45,485.829787 L99.55,485.829787 L99.55,495.628668 C99.55,496.938318 98.495821,498 97.175,498 C95.8633237,498 94.8,496.939702 94.8,495.628668 L94.8,485.829787 L94.7537886,485.829787 C92.6806284,485.829787 91,484.151732 91,482.085827 L91,470.850343 C91,468.782611 92.6861233,467.106383 94.7537886,467.106383 L106.246211,467.106383 C108.319372,467.106383 110,468.784438 110,470.850343 L110,482.085827 C110,484.153559 108.313877,485.829787 106.246211,485.829787 L106.2,485.829787 L106.2,495.628668 C106.2,496.938318 105.145821,498 103.825,498 C102.513324,498 101.45,496.939702 101.45,495.628668 L101.45,485.829787 Z M100.5,465.234043 C103.648023,465.234043 106.2,462.719216 106.2,459.617021 C106.2,456.514826 103.648023,454 100.5,454 C97.3519769,454 94.8,456.514826 94.8,459.617021 C94.8,462.719216 97.3519769,465.234043 100.5,465.234043 Z" id="Combined-Shape"></path>
        </g>
    </g>
</svg>