<?xml version="1.0" encoding="UTF-8"?>
<svg width="16px" height="37px" viewBox="0 0 16 37" version="1.1" xmlns="http://www.w3.org/2000/svg" xmlns:xlink="http://www.w3.org/1999/xlink">
    <!-- Generator: Sketch 39.1 (31720) - http://www.bohemiancoding.com/sketch -->
    <title>Combined Shape</title>
    <desc>Created with Sketch.</desc>
    <defs></defs>
    <g id="Flow" stroke="none" stroke-width="1" fill="none" fill-rule="evenodd">
        <g id="Yes---Family" transform="translate(-267.000000, -458.000000)" fill="#8A8A8A">
            <path d="M276,486 L274,486 L274,493.496749 C274,494.326972 273.334203,495 272.5,495 C271.671573,495 271,494.334564 271,493.496749 L271,485.900405 C268.717952,485.437675 267,483.417674 267,481.003314 L267,474.996686 C267,472.237092 269.241579,470 271.996686,470 L278.003314,470 C280.762908,470 283,472.241579 283,474.996686 L283,481.003314 C283,483.421153 281.279247,485.437893 279,485.900326 L279,493.496749 C279,494.326972 278.334203,495 277.5,495 C276.671573,495 276,494.334564 276,493.496749 L276,486 Z M275,468 C277.761424,468 280,465.761424 280,463 C280,460.238576 277.761424,458 275,458 C272.238576,458 270,460.238576 270,463 C270,465.761424 272.238576,468 275,468 Z" id="Combined-Shape"></path>
        </g>
    </g>
</svg>